<svg width="100" height="100" xmlns="http://www.w3.org/2000/svg">
<circle cx="37" cy="27" r="7" fill="red" stroke="red" />
<circle cx="62" cy="27" r="7" fill="red" stroke="red" />
<circle cx="37" cy="27" r="5" fill="blue" stroke="blue" />
<circle cx="62" cy="27" r="5" fill="blue" stroke="blue" />
<polygon points="45,50 50,30 55,50" fill="red" stroke="red" />
<rect x="20" y="60" width="60" height="10" fill="red" stroke="red" />
<rect x="20" y="60" width="2" height="10" fill="blue" stroke="blue" />
<rect x="25" y="60" width="2" height="10" fill="blue" stroke="blue" />
<rect x="30" y="60" width="2" height="10" fill="blue" stroke="blue" />
<rect x="35" y="60" width="2" height="10" fill="blue" stroke="blue" />
<rect x="40" y="60" width="2" height="10" fill="blue" stroke="blue" />
<rect x="45" y="60" width="2" height="10" fill="blue" stroke="blue" />
<rect x="50" y="60" width="2" height="10" fill="blue" stroke="blue" />
<rect x="55" y="60" width="2" height="10" fill="blue" stroke="blue" />
<rect x="60" y="60" width="2" height="10" fill="blue" stroke="blue" />
<rect x="65" y="60" width="2" height="10" fill="blue" stroke="blue" />
<rect x="70" y="60" width="2" height="10" fill="blue" stroke="blue" />
<rect x="75" y="60" width="2" height="10" fill="blue" stroke="blue" />
<rect x="80" y="60" width="2" height="10" fill="blue" stroke="blue" />
</svg>