<svg width="1000" height="600" xmlns="http://www.w3.org/2000/svg">
<rect width="100%" height="100%" fill="white"/>
<rect x="0" y="550" width="33" height="0" fill="blue"/>
<text x="10" y="585" font-family="Verdana" font-size="10" fill="black">1 (0)</text>
<rect x="43" y="550" width="33" height="0" fill="blue"/>
<text x="53" y="585" font-family="Verdana" font-size="10" fill="black">2 (0)</text>
<rect x="86" y="550" width="33" height="0" fill="blue"/>
<text x="96" y="585" font-family="Verdana" font-size="10" fill="black">3 (0)</text>
<rect x="129" y="275" width="33" height="275" fill="blue"/>
<text x="139" y="585" font-family="Verdana" font-size="10" fill="black">4 (1)</text>
<rect x="172" y="550" width="33" height="0" fill="blue"/>
<text x="182" y="585" font-family="Verdana" font-size="10" fill="black">5 (0)</text>
<rect x="215" y="550" width="33" height="0" fill="blue"/>
<text x="225" y="585" font-family="Verdana" font-size="10" fill="black">6 (0)</text>
<rect x="258" y="550" width="33" height="0" fill="blue"/>
<text x="268" y="585" font-family="Verdana" font-size="10" fill="black">7 (0)</text>
<rect x="301" y="550" width="33" height="0" fill="blue"/>
<text x="311" y="585" font-family="Verdana" font-size="10" fill="black">8 (0)</text>
<rect x="344" y="550" width="33" height="0" fill="blue"/>
<text x="354" y="585" font-family="Verdana" font-size="10" fill="black">9 (0)</text>
<rect x="387" y="550" width="33" height="0" fill="blue"/>
<text x="397" y="585" font-family="Verdana" font-size="10" fill="black">10 (0)</text>
<rect x="430" y="550" width="33" height="0" fill="blue"/>
<text x="440" y="585" font-family="Verdana" font-size="10" fill="black">11 (0)</text>
<rect x="473" y="550" width="33" height="0" fill="blue"/>
<text x="483" y="585" font-family="Verdana" font-size="10" fill="black">12 (0)</text>
<rect x="516" y="550" width="33" height="0" fill="blue"/>
<text x="526" y="585" font-family="Verdana" font-size="10" fill="black">13 (0)</text>
<rect x="559" y="550" width="33" height="0" fill="blue"/>
<text x="569" y="585" font-family="Verdana" font-size="10" fill="black">14 (0)</text>
<rect x="602" y="550" width="33" height="0" fill="blue"/>
<text x="612" y="585" font-family="Verdana" font-size="10" fill="black">15 (0)</text>
<rect x="645" y="550" width="33" height="0" fill="blue"/>
<text x="655" y="585" font-family="Verdana" font-size="10" fill="black">16 (0)</text>
<rect x="688" y="550" width="33" height="0" fill="blue"/>
<text x="698" y="585" font-family="Verdana" font-size="10" fill="black">17 (0)</text>
<rect x="731" y="550" width="33" height="0" fill="blue"/>
<text x="741" y="585" font-family="Verdana" font-size="10" fill="black">18 (0)</text>
<rect x="774" y="550" width="33" height="0" fill="blue"/>
<text x="784" y="585" font-family="Verdana" font-size="10" fill="black">19 (0)</text>
<rect x="817" y="550" width="33" height="0" fill="blue"/>
<text x="827" y="585" font-family="Verdana" font-size="10" fill="black">20 (0)</text>
<rect x="860" y="550" width="33" height="0" fill="blue"/>
<text x="870" y="585" font-family="Verdana" font-size="10" fill="black">21 (0)</text>
<rect x="903" y="550" width="33" height="0" fill="blue"/>
<text x="913" y="585" font-family="Verdana" font-size="10" fill="black">22 (0)</text>
<rect x="946" y="550" width="33" height="0" fill="blue"/>
<text x="956" y="585" font-family="Verdana" font-size="10" fill="black">23 (0)</text>
</svg>
